<svg xmlns="http://www.w3.org/2000/svg" width="18.559" height="18.559" viewBox="0 0 18.559 18.559">
  <g id="iconfinder_hammer-3_3553090" transform="translate(-10.607 12.528) rotate(-45)">
    <path id="Path_184" data-name="Path 184" d="M16.491,6h6.73a.711.711,0,0,1,.378.066.445.445,0,0,1,.185.185.711.711,0,0,1,.066.378v5.61a.711.711,0,0,1-.066.378.445.445,0,0,1-.185.185.711.711,0,0,1-.378.066H16.648a.712.712,0,0,1-.377-.065.446.446,0,0,1-.185-.185.712.712,0,0,1-.066-.377L16,6.492A.491.491,0,0,1,16.489,6Zm8.831,0h1.962v6.868H25.466a.711.711,0,0,1-.378-.065.446.446,0,0,1-.185-.185.712.712,0,0,1-.066-.378l-.006-5.749A.491.491,0,0,1,25.321,6Z" transform="translate(-3.566 0)" fill="#18a0a0" fill-rule="evenodd"/>
    <path id="Path_185" data-name="Path 185" d="M.491,6.868H2.453V0H.635A.711.711,0,0,0,.257.065.446.446,0,0,0,.072.251.711.711,0,0,0,.006.628L0,6.377a.491.491,0,0,0,.49.491Z" transform="translate(11.453 12.868) rotate(180)" fill="#18a0a0" fill-rule="evenodd"/>
    <path id="Path_186" data-name="Path 186" d="M21.991,22h1.472a.491.491,0,0,1,.491.491v8.095a1.226,1.226,0,0,1-1.226,1.226h0A1.226,1.226,0,0,1,21.5,30.585V22.491A.491.491,0,0,1,21.991,22Z" transform="translate(-6.368 -8.151)" fill="#18a0a0" fill-rule="evenodd"/>
  </g>
</svg>
